# xmcd CD database file
#
# Track frame offsets:
#	150
#	18645
#	30482
#	39711
#	52696
#	64417
#	76076
#	90342
#	109208
#	123485
#	135381
#	147504
#	163884
#
# Disc length: 2362 seconds
#
# Revision: 0
# Processed by: cddbd v1.4PL0 Copyright (c) Steve Scherf et al.
# Submitted via: CDex 1.50beta9
#
DISCID=aa09380d
DTITLE=SEAMUS MOORE - FLUTHERED ON THE MOON
DYEAR=1900
DGENRE=Country
TTITLE0=Fluthered On The Moon
TTITLE1=Famous Brew Potcheen
TTITLE2=Are You Gonna Stop
TTITLE3=The Half Crown Song
TTITLE4=Take Me Back To Tipperary
TTITLE5=Never marry into land
TTITLE6=The Mayo Rover
TTITLE7=The Garda Car
TTITLE8=Dun Laoghaire Can Be Such A Lonely Place
TTITLE9=The Publican's Wife
TTITLE10=Twice Daily
TTITLE11=The Bedford Van
TTITLE12=Working On The Bogs Of Lisdoonvarna
EXTD=
EXTT0=
EXTT1=
EXTT2=
EXTT3=
EXTT4=
EXTT5=
EXTT6=
EXTT7=
EXTT8=
EXTT9=
EXTT10=
EXTT11=
EXTT12=
PLAYORDER=
